<svg xmlns="http://www.w3.org/2000/svg" version="1.1" xmlns:xlink="http://www.w3.org/1999/xlink" xmlns:svgjs="http://svgjs.dev/svgjs" width="1000" height="232" viewBox="0 0 1000 232"><g transform="matrix(1,0,0,1,-0.6060606060606233,0.3249876694595315)"><svg viewBox="0 0 396 92" data-background-color="#ffffff" preserveAspectRatio="xMidYMid meet" height="232" width="1000" xmlns="http://www.w3.org/2000/svg" xmlns:xlink="http://www.w3.org/1999/xlink"><g id="tight-bounds" transform="matrix(1,0,0,1,0.2400000000000091,-0.12887442064774746)"><svg viewBox="0 0 395.52 92.25740336284883" height="92.25740336284883" width="395.52"><g><svg viewBox="0 0 542.7793466556565 126.60652589359441" height="92.25740336284883" width="395.52"><g transform="matrix(1,0,0,1,147.25934665565646,45.80650701899256)"><svg viewBox="0 0 395.52 34.99351185560929" height="34.99351185560929" width="395.52"><g id="textblocktransform"><svg viewBox="0 0 395.52 34.99351185560929" height="34.99351185560929" width="395.52" id="textblock"><g><svg viewBox="0 0 395.52 34.99351185560929" height="34.99351185560929" width="395.52"><g transform="matrix(1,0,0,1,0,0)"><svg width="395.52" viewBox="3.25 -37.5 423.82000732421875 37.5" height="34.99351185560929" data-palette-color="white"><path d="M3.25-37.5L21.1-37.5Q24.4-37.5 25.55-36.25L25.55-36.25Q26.7-35 26.7-31.3L26.7-31.3 26.7-27.65Q26.7-24.8 25.5-23.5L25.5-23.5Q24.9-22.85 23.93-22.25 22.95-21.65 21.55-20.8L21.55-20.8 10.5-13.9 10.5-3.4 13.75-3.4 13.75 0 3.25 0 3.25-3.4 6.4-3.4 6.4-34.05 3.25-34.05 3.25-37.5ZM23.05-25.65L23.05-34.05 10.5-34.05 10.5-17.9 23.05-25.65ZM38.25-37.5L48-37.5Q51.05-37.5 52.42-35.83 53.8-34.15 53.8-30.85L53.8-30.85 53.8-6.8Q53.8-3.2 52.6-1.6 51.4 0 48.25 0L48.25 0 38.65 0Q33.85 0 33-3.6L33-3.6Q32.7-4.7 32.7-6.05L32.7-6.05 32.7-30.85Q32.7-34.2 33.8-35.7L33.8-35.7Q35.05-37.5 38.25-37.5L38.25-37.5ZM36.7-34.1L36.7-3.4 49.8-3.4 49.8-34.1 36.7-34.1ZM87.45-37.5L95.7-37.5 95.7-34.1 93.3-34.1 87.95 0 81.45 0 76.05-34.05 70.65 0 64.15 0 58.8-34.1 56.4-34.1 56.4-37.5 64.65-37.5 64.65-34.1 62.65-34.1 67.4-3.4 72.65-37.5 79.45-37.5 84.7-3.4 89.45-34.1 87.45-34.1 87.45-37.5ZM114.49-24.65L117.89-24.65 117.89-14.15 114.49-14.15 114.49-17.7 107.44-17.7 107.44-3.4 120.24-3.4 120.24-9.25 123.64-9.25 123.64 0 100.19 0 100.19-3.4 103.34-3.4 103.34-34.1 100.19-34.1 100.19-37.5 123.64-37.5 123.64-28.25 120.24-28.25 120.24-34.1 107.44-34.1 107.44-21.1 114.49-21.1 114.49-24.65ZM154.89-3.4L157.69-3.4 157.69 0 147.79 0 147.79-3.4 150.49-3.4 141.94-17.15 136.64-13.9 136.64-3.4 139.89-3.4 139.89 0 129.39 0 129.39-3.4 132.54-3.4 132.54-34.1 129.39-34.1 129.39-37.5 147.24-37.5Q150.54-37.5 151.69-36.23 152.84-34.95 152.84-31.25L152.84-31.25 152.84-28.15Q152.84-26.25 152.49-25.15 152.14-24.05 151.24-23.18 150.34-22.3 148.84-21.4 147.34-20.5 145.04-19.1L145.04-19.1 154.89-3.4ZM136.64-34.1L136.64-17.9 149.19-25.65 149.19-34.1 136.64-34.1ZM181.89 0L169.04 0Q164.59 0 164.59-4.95L164.59-4.95 164.59-34.1 161.44-34.1 161.44-37.5 171.94-37.5 171.94-34.1 168.69-34.1 168.69-3.4 182.29-3.4 182.29-34.1 179.04-34.1 179.04-37.5 189.54-37.5 189.54-34.1 186.39-34.1 186.39-5.2Q186.39 0 181.89 0L181.89 0ZM195.79-37.5L213.64-37.5Q216.94-37.5 218.09-36.25L218.09-36.25Q219.24-35 219.24-31.3L219.24-31.3 219.24-27.65Q219.24-24.8 218.04-23.5L218.04-23.5Q217.44-22.85 216.46-22.25 215.49-21.65 214.09-20.8L214.09-20.8 203.04-13.9 203.04-3.4 206.29-3.4 206.29 0 195.79 0 195.79-3.4 198.94-3.4 198.94-34.05 195.79-34.05 195.79-37.5ZM215.59-25.65L215.59-34.05 203.04-34.05 203.04-17.9 215.59-25.65ZM257.28-14.15L257.28-17.7 250.23-17.7 250.23-3.4 253.48-3.4 253.48 0 242.98 0 242.98-3.4 246.13-3.4 246.13-34.1 242.98-34.1 242.98-37.5 266.43-37.5 266.43-28.25 263.03-28.25 263.03-34.1 250.23-34.1 250.23-21.1 257.28-21.1 257.28-24.65 260.68-24.65 260.68-14.15 257.28-14.15ZM280.18-34.1L280.18-3.4 283.43-3.4 283.43 0 272.93 0 272.93-3.4 276.08-3.4 276.08-34.1 272.93-34.1 272.93-37.5 283.43-37.5 283.43-34.1 280.18-34.1ZM295.43 0L295.43-3.4 298.57-3.4 298.57-34.1 292.28-34.1 292.28-28.2 288.68-28.2 288.68-37.5 312.63-37.5 312.63-28.2 308.98-28.2 308.98-34.1 302.68-34.1 302.68-3.4 305.93-3.4 305.93 0 295.43 0ZM346.57-37.5L346.57-34.1 343.42-34.1 343.42 0 338.52 0 324.37-29.2 324.37-3.4 327.62-3.4 327.62 0 317.12 0 317.12-3.4 320.27-3.4 320.27-34.1 317.12-34.1 317.12-37.5 324.82-37.5 339.32-7.7 339.32-34.1 336.07-34.1 336.07-37.5 346.57-37.5ZM367.37-24.65L370.77-24.65 370.77-14.15 367.37-14.15 367.37-17.7 360.32-17.7 360.32-3.4 373.12-3.4 373.12-9.25 376.52-9.25 376.52 0 353.07 0 353.07-3.4 356.22-3.4 356.22-34.1 353.07-34.1 353.07-37.5 376.52-37.5 376.52-28.25 373.12-28.25 373.12-34.1 360.32-34.1 360.32-21.1 367.37-21.1 367.37-24.65ZM386.02-26.1L398.42-18.35Q399.42-17.65 400.29-17.13 401.17-16.6 401.82-16L401.82-16Q403.12-14.8 403.12-13.05L403.12-13.05 403.12-4.55Q403.12-2.3 401.52-1.1L401.52-1.1Q400.17 0 397.97 0L397.97 0 382.02 0 382.02-9.25 385.62-9.25 385.62-3.4 399.12-3.4 399.12-13.15 386.02-21.2Q384.27-22.2 383.14-23.28 382.02-24.35 382.02-26.2L382.02-26.2 382.02-32.5Q382.02-35.45 383.42-36.55L383.42-36.55Q384.62-37.5 387.57-37.5L387.57-37.5 402.67-37.5 402.67-28.25 399.07-28.25 399.07-34.1 386.02-34.1 386.02-26.1ZM409.97-26.1L422.37-18.35Q423.37-17.65 424.24-17.13 425.12-16.6 425.77-16L425.77-16Q427.07-14.8 427.07-13.05L427.07-13.05 427.07-4.55Q427.07-2.3 425.47-1.1L425.47-1.1Q424.12 0 421.92 0L421.92 0 405.97 0 405.97-9.25 409.57-9.25 409.57-3.4 423.07-3.4 423.07-13.15 409.97-21.2Q408.22-22.2 407.09-23.28 405.97-24.35 405.97-26.2L405.97-26.2 405.97-32.5Q405.97-35.45 407.37-36.55L407.37-36.55Q408.57-37.5 411.52-37.5L411.52-37.5 426.62-37.5 426.62-28.25 423.02-28.25 423.02-34.1 409.97-34.1 409.97-26.1Z" opacity="1" transform="matrix(1,0,0,1,0,0)" fill="white" class="undefined-text-0" data-fill-palette-color="primary" id="text-0"></path></svg></g></svg></g></svg></g></svg></g><g><svg viewBox="0 0 126.60652589359441 126.60652589359441" height="126.60652589359441" width="126.60652589359441"><g><svg viewBox="0 0 126.60652589359441 126.60652589359441" height="126.60652589359441" width="126.60652589359441"><g transform="matrix(1,0,0,1,33.4618186128536,46.72468276127297)"><svg viewBox="0 0 59.68288866788721 33.157160371048455" height="33.157160371048455" width="59.68288866788721"><g><svg xmlns="http://www.w3.org/2000/svg" xmlns:xlink="http://www.w3.org/1999/xlink" version="1.1" x="0" y="0" viewBox="13 25 54 30" enable-background="new 0 0 80 80" xml:space="preserve" height="33.157160371048455" width="59.68288866788721" class="icon-s-0" data-fill-palette-color="accent" id="s-0"><g fill="white" data-fill-palette-color="accent"><path d="M65.6 40c0.8-0.7 1.4-1.8 1.4-3 0-1.1-0.9-2-2-2-0.7 0-1.4 0.2-2 0.5V32c0-0.6-0.4-1-1-1h-3v-5c0-0.6-0.4-1-1-1h-4c-0.6 0-1 0.4-1 1v11H27V26c0-0.6-0.4-1-1-1h-4c-0.6 0-1 0.4-1 1v5h-3c-0.6 0-1 0.4-1 1v3.5c-0.6-0.3-1.3-0.5-2-0.5-1.1 0-2 0.9-2 2 0 1.2 0.5 2.3 1.4 3-0.8 0.7-1.4 1.8-1.4 3 0 1.1 0.9 2 2 2 0.7 0 1.4-0.2 2-0.5V48c0 0.6 0.4 1 1 1h3v5c0 0.6 0.4 1 1 1h4c0.6 0 1-0.4 1-1V43h26v11c0 0.6 0.4 1 1 1h4c0.6 0 1-0.4 1-1v-5h3c0.6 0 1-0.4 1-1v-3.5c0.6 0.3 1.3 0.5 2 0.5 1.1 0 2-0.9 2-2C67 41.8 66.5 40.7 65.6 40zM65 37c0 1.1-0.9 2-2 2C63 37.9 63.9 37 65 37zM44.6 41l1-2h1.8l-1 2H44.6zM40.6 41l1-2h1.8l-1 2H40.6zM36.6 41l1-2h1.8l-1 2H36.6zM32.6 41l1-2h1.8l-1 2H32.6zM15 37c1.1 0 2 0.9 2 2C15.9 39 15 38.1 15 37zM15 43c0-1.1 0.9-2 2-2C17 42.1 16.1 43 15 43zM19 47v-6-1-1-6h2v14H19zM25 53h-2v-5V32v-5h2v11 4V53zM27 39h4.4l-1 2H27V39zM48.6 41l1-2H53v2H48.6zM57 53h-2V42v-4V27h2v5 16V53zM61 47h-2V33h2v6 1 1V47zM65 43c-1.1 0-2-0.9-2-2C64.1 41 65 41.9 65 43L65 43z" fill="white" data-fill-palette-color="accent"></path></g></svg></g></svg></g><path d="M13.841 78.98l1.485 4.589c0.183 0.565 0.198 0.981 0.046 1.247v0c-0.152 0.267-0.542 0.502-1.17 0.705v0l-0.943 0.305c-0.489 0.158-0.877 0.172-1.164 0.04v0c-0.147-0.065-0.299-0.166-0.457-0.304-0.155-0.132-0.344-0.295-0.568-0.489v0l-2.699-2.261-2.694 0.872 0.269 0.829-0.876 0.283-0.872-2.694 0.875-0.283 0.262 0.809 7.882-2.552-0.262-0.809zM12.443 85.059l2.161-0.699-1.044-3.227-4.151 1.343zM17.8 88.996l1.235 2.323c0.26 0.489 0.315 0.913 0.166 1.272-0.149 0.359-0.489 0.679-1.018 0.961v0l-5.734 3.049c-0.577 0.307-1.043 0.434-1.396 0.379-0.357-0.06-0.668-0.34-0.934-0.84v0l-1.217-2.288c-0.407-0.766-0.361-1.368 0.138-1.807v0c0.152-0.141 0.333-0.268 0.546-0.381v0l5.919-3.148c0.536-0.285 0.969-0.402 1.298-0.35v0c0.395 0.047 0.727 0.323 0.997 0.83zM16.79 89.057l-7.324 3.894 1.663 3.128 7.324-3.895zM26.198 100.692l1.417 1.71-0.708 0.587-0.409-0.493-8.021 4.765-1.124-1.356 6.162-6.992-8.02 4.75-1.124-1.356 6.176-6.99-0.416-0.501 0.709-0.587 1.424 1.718-0.709 0.587-0.344-0.416-5.569 6.28 8.001-4.787 1.169 1.409-6.188 6.975 7.21-4.3-0.345-0.416zM30.267 109.067l0.717 0.578-1.782 2.213-0.717-0.577 0.602-0.749-1.48-1.192-2.423 3.008 2.689 2.165 0.992-1.231 0.717 0.577-1.569 1.949-4.934-3.973 0.578-0.717 0.662 0.534 5.203-6.461-0.663-0.533 0.577-0.717 4.934 3.972-1.569 1.948-0.717-0.577 0.991-1.231-2.688-2.165-2.203 2.735 1.481 1.192zM38.555 120.706l0.663 0.352-0.432 0.813-2.359-1.252 0.432-0.813 0.645 0.342-0.301-4.363-1.677 0.107-1.328 2.501 0.769 0.408-0.431 0.813-2.501-1.327 0.431-0.814 0.751 0.399 3.89-7.326-0.751-0.399 0.432-0.813 4.26 2.262c0.524 0.278 0.825 0.566 0.901 0.863 0.073 0.303-0.047 0.749-0.36 1.339v0l-0.394 0.742c-0.16 0.3-0.313 0.525-0.46 0.674-0.15 0.14-0.333 0.243-0.549 0.309-0.216 0.066-0.483 0.106-0.8 0.119-0.311 0.016-0.708 0.039-1.192 0.069v0zM38.088 111.067l-2.05 3.862 3.976-0.256 1.07-2.015zM48.004 124.925l-3.322-1.01c-0.766-0.233-1.019-0.777-0.758-1.632v0l2.291-7.534-0.814-0.247 0.268-0.881 2.719 0.827-0.268 0.88-0.842-0.256-2.414 7.936 3.513 1.069 2.414-7.936-0.843-0.257 0.268-0.88 2.719 0.826-0.268 0.881-0.814-0.247-2.273 7.476c-0.272 0.893-0.797 1.222-1.576 0.985zM55.839 116.231l4.797 0.502c0.59 0.062 0.977 0.216 1.158 0.464v0c0.182 0.247 0.239 0.699 0.17 1.356v0l-0.103 0.985c-0.054 0.511-0.199 0.871-0.435 1.081v0c-0.119 0.108-0.273 0.206-0.464 0.293-0.184 0.088-0.409 0.195-0.677 0.322v0l-3.161 1.55-0.295 2.816 0.866 0.091-0.096 0.916-2.816-0.296 0.096-0.915 0.845 0.089 0.864-8.24-0.846-0.089zM60.829 119.973l0.237-2.259-3.374-0.354-0.454 4.339zM76.56 121.585l-0.192-0.942-1.862 0.38 0.771 3.784 0.853-0.173 0.184 0.902-2.775 0.565-0.184-0.902 0.834-0.17-1.657-8.128-0.833 0.17-0.184-0.902 6.206-1.265 0.5 2.452-0.902 0.183-0.316-1.549-3.382 0.69 0.701 3.441 1.863-0.38-0.192-0.941 0.902-0.184 0.567 2.785zM82.974 114.006l2.845 7.792 0.827-0.302 0.316 0.864-2.67 0.975-0.315-0.865 0.799-0.291-2.845-7.792-0.799 0.292-0.316-0.865 2.67-0.975 0.315 0.865zM92.611 119.562l-0.449-0.803 0.742-0.416-4.052-7.237-1.485 0.831 0.778 1.388-0.847 0.474-1.227-2.192 5.649-3.162 1.227 2.191-0.865 0.484-0.777-1.388-1.484 0.831 4.052 7.238 0.768-0.43 0.45 0.803zM99.9 101.886l0.585 0.711-0.656 0.54 5.859 7.114-1.02 0.84-7.969-3.664 4.433 5.383 0.672-0.553 0.586 0.71-2.186 1.8-0.585-0.71 0.656-0.541-5.273-6.403-0.657 0.541-0.585-0.711 1.606-1.323 8.141 3.73-4.535-5.506-0.672 0.553-0.586-0.711zM106.976 98.856l0.583-0.713 2.2 1.799-0.583 0.712-0.744-0.608-1.203 1.472 2.99 2.445 2.185-2.673-1.224-1 0.583-0.713 1.936 1.583-4.009 4.904-0.712-0.583 0.538-0.658-6.422-5.251-0.538 0.659-0.713-0.583 4.009-4.903 1.937 1.583-0.583 0.713-1.224-1.001-2.185 2.672 2.719 2.223 1.204-1.471zM110.54 92.876l3.466-1.898c0.199-0.095 0.378-0.189 0.538-0.283 0.162-0.085 0.32-0.153 0.471-0.205v0c0.3-0.099 0.587-0.072 0.861 0.082v0l2.006 1.128c0.355 0.199 0.555 0.476 0.6 0.831v0c0.053 0.313-0.016 0.641-0.209 0.984v0l-2.113 3.759-2.181-1.225 0.476-0.846 1.378 0.774 1.79-3.183-2.294-1.29-3.637 2.019c-0.311 0.185-0.601 0.32-0.871 0.406-0.267 0.08-0.545 0.038-0.836-0.126v0l-1.483-0.834c-0.465-0.262-0.72-0.55-0.764-0.866v0c-0.047-0.271 0.061-0.639 0.322-1.104v0l2-3.559 2.181 1.226-0.476 0.846-1.378-0.774-1.731 3.079zM114.22 85.307l3.133-2.407c0.182-0.124 0.344-0.245 0.488-0.362 0.147-0.109 0.292-0.201 0.434-0.276v0c0.282-0.144 0.569-0.161 0.863-0.051v0l2.156 0.806c0.381 0.142 0.621 0.385 0.721 0.729v0c0.101 0.301 0.083 0.636-0.056 1.004v0l-1.51 4.04-2.343-0.876 0.34-0.909 1.481 0.553 1.279-3.42-2.465-0.922-3.284 2.554c-0.278 0.231-0.545 0.409-0.798 0.535-0.251 0.12-0.533 0.121-0.845 0.004v0l-1.594-0.596c-0.5-0.187-0.796-0.433-0.888-0.738v0c-0.088-0.261-0.038-0.641 0.149-1.141v0l1.429-3.824 2.344 0.876-0.34 0.91-1.481-0.554-1.237 3.308z" fill="white" data-fill-palette-color="accent"></path><path d="M1.01 47.053L2.495 42.465C2.678 41.9 2.909 41.554 3.189 41.427V41.427C3.468 41.301 3.925 41.34 4.56 41.545V41.545L5.493 41.847C5.981 42.006 6.304 42.222 6.46 42.497V42.497C6.542 42.636 6.605 42.807 6.651 43.011 6.699 43.209 6.757 43.452 6.825 43.741V43.741L7.687 47.154 10.381 48.026 10.649 47.198 11.525 47.481 10.653 50.175 9.777 49.892 10.039 49.083 2.157 46.531 1.895 47.34ZM5.705 42.947L3.544 42.247 2.499 45.474 6.659 46.821ZM5.894 34.855L7.129 32.532C7.389 32.043 7.71 31.76 8.091 31.683 8.477 31.609 8.933 31.711 9.457 31.99V31.99L15.191 35.039C15.768 35.346 16.133 35.661 16.286 35.984 16.436 36.313 16.378 36.728 16.111 37.229V37.229L14.895 39.517C14.488 40.283 13.962 40.581 13.319 40.413V40.413C13.117 40.366 12.91 40.286 12.698 40.173V40.173L6.779 37.026C6.243 36.741 5.905 36.447 5.763 36.145V36.145C5.581 35.792 5.624 35.362 5.894 34.855ZM6.509 35.658L13.833 39.553 15.496 36.426 8.172 32.531ZM15.813 20.887L17.237 19.169 17.946 19.756 17.531 20.257 23.706 27.248 22.582 28.603 14.563 23.853 20.724 30.845 19.6 32.201 11.586 27.429 11.171 27.93 10.462 27.342 11.886 25.624 12.595 26.212 12.25 26.628 19.453 30.936 13.266 23.96 14.434 22.551 22.436 27.338 16.867 21.058 16.522 21.474ZM26.173 16.011L26.89 15.434 28.672 17.647 27.955 18.225 27.353 17.476 25.872 18.669 28.294 21.677 30.983 19.512 29.991 18.281 30.708 17.703 32.277 19.652 27.344 23.624 26.767 22.907 27.429 22.374 22.227 15.913 21.564 16.446 20.987 15.729 25.92 11.757 27.489 13.705 26.772 14.283 25.78 13.051 23.092 15.216 25.294 17.952 26.775 16.759ZM40.887 13.832L41.55 13.48 41.982 14.293 39.622 15.546 39.191 14.733 39.836 14.39 36.053 12.195 35.203 13.644 36.531 16.145 37.299 15.737 37.731 16.55 35.23 17.878 34.798 17.065 35.55 16.666 31.66 9.34 30.908 9.738 30.477 8.925 34.736 6.664C35.261 6.385 35.669 6.301 35.961 6.41 36.25 6.513 36.551 6.86 36.864 7.449V7.449L37.258 8.191C37.418 8.492 37.518 8.744 37.559 8.949 37.59 9.151 37.573 9.361 37.507 9.577 37.44 9.794 37.324 10.037 37.158 10.306 36.997 10.573 36.791 10.916 36.538 11.337V11.337ZM32.641 8.819L34.696 12.69 36.706 9.243 35.637 7.228ZM49.997 11.736L46.675 12.746C45.909 12.979 45.396 12.668 45.136 11.812V11.812L42.845 4.278 42.031 4.526 41.764 3.645 44.482 2.818 44.75 3.699 43.908 3.955 46.321 11.891 49.834 10.823 47.421 2.887 46.579 3.143 46.311 2.262 49.03 1.435 49.297 2.316 48.484 2.564 50.757 10.04C51.029 10.934 50.776 11.499 49.997 11.736ZM54.457 0.524L59.254 0.022C59.844-0.04 60.254 0.031 60.483 0.235V0.235C60.713 0.439 60.862 0.873 60.931 1.536V1.536L61.034 2.511C61.087 3.022 61.02 3.405 60.832 3.659V3.659C60.738 3.79 60.608 3.917 60.44 4.042 60.278 4.167 60.079 4.318 59.843 4.497V4.497L57.073 6.669 57.368 9.485 58.234 9.394 58.33 10.31 55.513 10.605 55.417 9.69 56.263 9.601 55.4 1.361 54.554 1.45ZM60.115 3.151L59.878 0.892 56.504 1.245 56.96 5.594ZM76.765 7.742L76.957 6.801 75.094 6.421 74.322 10.206 75.175 10.38 74.992 11.282 72.217 10.716 72.401 9.814 73.234 9.984 74.891 1.856 74.057 1.686 74.241 0.784 80.447 2.049 79.948 4.5 79.046 4.316 79.361 2.767 75.979 2.078 75.278 5.519 77.14 5.899 77.332 4.958 78.234 5.141 77.667 7.926ZM87.005 5.225L84.16 13.016 84.987 13.318 84.672 14.183 82.002 13.208 82.318 12.344 83.117 12.635 85.962 4.844 85.163 4.552 85.479 3.687 88.148 4.662 87.832 5.527ZM89.338 16.53L89.788 15.727 90.53 16.143 94.582 8.905 93.098 8.074 92.321 9.462 91.474 8.988 92.701 6.797 98.35 9.959 97.123 12.151 96.258 11.667 97.036 10.278 95.551 9.447 91.499 16.685 92.268 17.115 91.818 17.919ZM108.52 17.879L107.935 18.589 107.278 18.049 101.419 25.162 100.4 24.322 102.469 15.798 98.035 21.182 98.707 21.735 98.122 22.446 95.936 20.645 96.521 19.935 97.178 20.475 102.451 14.073 101.795 13.532 102.38 12.821 103.986 14.145 101.885 22.849 106.421 17.343 105.749 16.789 106.334 16.079ZM112.09 27.182L112.673 27.895 110.473 29.694 109.89 28.981 110.634 28.373 109.431 26.901 106.441 29.346 108.626 32.018 109.85 31.018 110.432 31.73 108.496 33.314 104.487 28.41 105.199 27.827 105.738 28.486 112.159 23.236 111.621 22.577 112.334 21.994 116.343 26.898 114.406 28.481 113.824 27.769 115.047 26.768 112.862 24.095 110.143 26.318 111.347 27.79ZM116.976 33.719L116.796 37.666C116.773 37.885 116.761 38.087 116.758 38.273 116.746 38.455 116.723 38.625 116.689 38.782V38.782C116.617 39.09 116.441 39.323 116.162 39.48V39.48L114.165 40.602C113.81 40.802 113.47 40.829 113.143 40.683V40.683C112.848 40.566 112.603 40.336 112.411 39.993V39.993L110.297 36.234 112.478 35.008 112.954 35.854 111.575 36.629 113.365 39.812 115.659 38.523 115.825 34.366C115.828 34.005 115.863 33.687 115.931 33.411 116.001 33.142 116.182 32.926 116.473 32.762V32.762L117.955 31.929C118.415 31.671 118.794 31.603 119.093 31.726V31.726C119.348 31.827 119.607 32.11 119.868 32.575V32.575L121.869 36.134 119.688 37.36 119.213 36.514 120.591 35.739 118.86 32.66ZM121.133 42.316L120.349 46.188C120.293 46.401 120.249 46.599 120.218 46.781 120.178 46.96 120.129 47.125 120.071 47.274V47.274C119.953 47.568 119.744 47.771 119.444 47.883V47.883L117.298 48.685C116.917 48.828 116.576 48.802 116.275 48.608V48.608C116.001 48.447 115.796 48.182 115.658 47.813V47.813L114.148 43.774 116.491 42.898 116.831 43.807 115.35 44.361 116.629 47.782 119.094 46.86 119.896 42.778C119.955 42.422 120.039 42.112 120.148 41.851 120.259 41.596 120.471 41.41 120.783 41.293V41.293L122.376 40.697C122.87 40.513 123.255 40.504 123.531 40.672V40.672C123.768 40.811 123.98 41.13 124.167 41.63V41.63L125.597 45.454 123.254 46.33 122.914 45.421 124.395 44.867 123.158 41.559Z" fill="white" data-fill-palette-color="accent"></path><path d="M1.332 65.098c0-2.138 1.734-3.872 3.872-3.872 2.138 0 3.872 1.734 3.872 3.872 0 2.138-1.734 3.872-3.872 3.872-2.138 0-3.872-1.734-3.872-3.872zM117.88 65.098c0-2.138 1.734-3.872 3.872-3.872 2.138 0 3.872 1.734 3.872 3.872 0 2.138-1.734 3.872-3.872 3.872-2.138 0-3.872-1.734-3.872-3.872z" fill="white" data-fill-palette-color="accent"></path></svg></g></svg></g></svg></g><defs></defs></svg><rect width="395.52" height="92.25740336284883" fill="none" stroke="none" visibility="hidden"></rect></g></svg></g></svg>